# xmcd
#
# Track frame offsets: 
#        150
#        12256
#        24109
#        35282
#        48751
#        61009
#        72640
#        82892
#        92464
#        104666
#        117498
#        129572
#        141526
#        153600
#        165086
#        175302
#        186892
#        198579
#        209668
#        221219
#
# Disc length: 3138 seconds
#
# Revision: 0
# Processed by: cddbd v1.5.2PL0 Copyright (c) Steve Scherf et al.
# Submitted via: ExactAudioCopy v0.99pb4
#
DISCID=1c0c4014
DTITLE=Mel Tillis and The Statesiders - S-S-Superstar!
DYEAR=1978
DGENRE=Country
TTITLE0=Commercial Affection
TTITLE1=Wine Me Up
TTITLE2=Cling to Me
TTITLE3=Water the Family Tree
TTITLE4=I thought About You
TTITLE5=The Arms of a Fool
TTITLE6=Before I Met You
TTITLE7=I'm Tired
TTITLE8=Let Forgiveness In
TTITLE9=All I Ever Wanted to Do
TTITLE10=One More Time
TTITLE11=I Can't Stop Loving You
TTITLE12=How You Drink the Wine
TTITLE13=Don't It Make You Wanta Go Home
TTITLE14=Brand New Wrapper
TTITLE15=Heaven Everyday
TTITLE16=Gonna Burn Some Bridges
TTITLE17=Is Anybody Goin' to San Antone
TTITLE18=Welcome to My world
TTITLE19=Veil of White Lace
EXTD=
EXTT0=
EXTT1=
EXTT2=
EXTT3=
EXTT4=
EXTT5=
EXTT6=
EXTT7=
EXTT8=
EXTT9=
EXTT10=
EXTT11=
EXTT12=
EXTT13=
EXTT14=
EXTT15=
EXTT16=
EXTT17=
EXTT18=
EXTT19=
PLAYORDER=
